<svg width="2811" height="1938" viewBox="0 0 2811 1938" fill="none" xmlns="http://www.w3.org/2000/svg">
<g clip-path="url(#clip0_1_2)">
<path d="M2069.6 379.983C2069.6 421.884 1985.1 416.268 1926.6 399.775C1842.09 379.983 1783.59 340.399 1803.09 254.635C1803.09 185.364 1871.35 196.83 1952.6 228.246C2020.85 254.635 2069.6 338.082 2069.6 379.983Z" fill="#E7E8FF"/>
<path d="M108.182 1521.24C108.182 1612.74 150.139 1702.04 201.683 1775.93C281.795 1890.77 424.178 1934.38 564.139 1934.38H2233.13C2330.12 1934.38 2394.35 1797.29 2397.53 1700.29C2402.25 1556.1 2484.64 1392.75 2460.61 1150.11C2423.15 771.98 2168.43 656.44 1902.47 512.9C1636.51 369.348 1808.82 159.277 1351.82 33.234C894.821 -92.808 411.599 323.833 426.582 712.46C441.566 1101.09 108.182 1157.11 108.182 1521.24Z" fill="#E7E8FF"/>
<path d="M1153.22 1934.38H1464.3C1633.03 1873.69 1801.76 1594 1646.21 1623.02C1490.67 1652.05 1337.76 1638.86 1540.76 1538.59C1743.76 1438.32 1633.03 1361.81 1540.76 1369.72C1448.49 1377.64 1464.3 1314.31 1501.21 1192.94C1538.12 1071.56 1501.21 960.74 1398.4 960.74C1295.58 960.74 1377.31 1261.54 1295.58 1282.65C1213.85 1303.76 1253.4 1163.91 1153.22 1192.94C1053.03 1221.96 1216.49 1567.61 1153.22 1538.59C1089.94 1509.57 1097.85 1369.72 984.49 1475.26C893.799 1559.7 1059.19 1816.52 1153.22 1934.38Z" fill="white"/>
<path d="M803.633 77.3C803.633 48.827 826.714 25.746 855.187 25.746H1767.5C1795.97 25.746 1819.05 48.827 1819.05 77.3V1247.62C1819.05 1276.1 1795.97 1299.18 1767.5 1299.18H855.187C826.714 1299.18 803.633 1276.1 803.633 1247.62V77.3Z" fill="white"/>
<path fill-rule="evenodd" clip-rule="evenodd" d="M795.906 77.3C795.906 44.56 822.447 18.019 855.187 18.019H1767.5C1800.24 18.019 1826.78 44.56 1826.78 77.3V1247.62C1826.78 1280.36 1800.24 1306.9 1767.5 1306.9H855.187C822.447 1306.9 795.906 1280.36 795.906 1247.62V77.3ZM855.187 33.473C830.982 33.473 811.36 53.095 811.36 77.3V1247.62C811.36 1271.83 830.982 1291.45 855.187 1291.45H1767.5C1791.7 1291.45 1811.32 1271.83 1811.32 1247.62V77.3C1811.32 53.095 1791.7 33.473 1767.5 33.473H855.187Z" fill="#032068"/>
<path d="M803.633 77.3C803.633 48.827 826.714 25.746 855.187 25.746H1767.5C1795.97 25.746 1819.05 48.827 1819.05 77.3V200.531H803.633V77.3Z" fill="#032068"/>
<path d="M961.77 113.138C961.77 133.823 945 150.592 924.32 150.592C903.634 150.592 886.865 133.823 886.865 113.138C886.865 92.4529 903.634 75.684 924.32 75.684C945 75.684 961.77 92.4529 961.77 113.138ZM1086.63 113.138C1086.63 133.823 1069.86 150.592 1049.17 150.592C1028.49 150.592 1011.72 133.823 1011.72 113.138C1011.72 92.4529 1028.49 75.684 1049.17 75.684C1069.86 75.684 1086.63 92.4529 1086.63 113.138ZM1211.47 113.138C1211.47 133.823 1194.7 150.592 1174.01 150.592C1153.33 150.592 1136.56 133.823 1136.56 113.138C1136.56 92.4529 1153.33 75.684 1174.01 75.684C1194.7 75.684 1211.47 92.4529 1211.47 113.138Z" fill="white"/>
<path fill-rule="evenodd" clip-rule="evenodd" d="M1477.8 341.427H949.29V325.973H1477.8V341.427ZM1477.8 882.43H949.29V866.97H1477.8V882.43ZM1477.8 1032.24H949.29V1016.79H1477.8V1032.24Z" fill="#E7E8FF"/>
<path fill-rule="evenodd" clip-rule="evenodd" d="M954.05 501.78C954.05 469.04 980.59 442.496 1013.33 442.496H1526.13C1558.87 442.496 1585.41 469.04 1585.41 501.78V698.3C1585.41 731.04 1558.87 757.58 1526.13 757.58H1013.33C980.59 757.58 954.05 731.04 954.05 698.3V501.78ZM1013.33 457.95C989.13 457.95 969.5 477.57 969.5 501.78V698.3C969.5 722.5 989.13 742.13 1013.33 742.13H1526.13C1550.34 742.13 1569.96 722.5 1569.96 698.3V501.78C1569.96 477.57 1550.34 457.95 1526.13 457.95H1013.33Z" fill="#F4AD5E"/>
<path d="M1261.41 1159.3C1261.41 1130.83 1284.49 1107.75 1312.97 1107.75H1318.06C1346.53 1107.75 1369.61 1130.83 1369.61 1159.3V1164.39C1369.61 1192.86 1346.53 1215.95 1318.06 1215.95H1312.97C1284.49 1215.95 1261.41 1192.86 1261.41 1164.39V1159.3Z" fill="#F4AD5E"/>
<path fill-rule="evenodd" clip-rule="evenodd" d="M1453.44 1159.3C1453.44 1126.56 1479.98 1100.02 1512.72 1100.02H1517.81C1550.55 1100.02 1577.09 1126.56 1577.09 1159.3V1164.39C1577.09 1197.13 1550.55 1223.67 1517.81 1223.67H1512.72C1479.98 1223.67 1453.44 1197.13 1453.44 1164.39V1159.3ZM1512.72 1115.47C1488.52 1115.47 1468.89 1135.1 1468.89 1159.3V1164.39C1468.89 1188.6 1488.52 1208.22 1512.72 1208.22H1517.81C1542.02 1208.22 1561.64 1188.6 1561.64 1164.39V1159.3C1561.64 1135.1 1542.02 1115.47 1517.81 1115.47H1512.72Z" fill="#E7E8FF"/>
<path fill-rule="evenodd" clip-rule="evenodd" d="M1182.18 530.51C1172.88 515.84 1151.34 516.22 1142.56 531.22L1077.28 642.74C1070.35 654.58 1057.65 661.87 1043.92 661.87H961.78V646.41H1043.92C1052.16 646.41 1059.78 642.04 1063.94 634.93L1129.22 523.41C1143.85 498.43 1179.73 497.79 1195.24 522.24L1252.95 613.24C1261.5 626.73 1280.8 627.75 1290.72 615.23L1337.26 556.56C1351.87 538.14 1379.39 536.91 1395.58 553.95L1440.97 601.73C1445.35 606.35 1451.43 608.96 1457.79 608.96H1573.52V624.41H1457.79C1447.2 624.41 1437.07 620.06 1429.77 612.38L1384.37 564.6C1374.66 554.37 1358.14 555.11 1349.37 566.16L1302.83 624.84C1286.3 645.68 1254.14 643.99 1239.89 621.52L1182.18 530.51Z" fill="#F4AD5E"/>
<path d="M1297.53 1930.43C1247.59 1840.54 1027.03 1778.29 922.99 1757.49L835.41 1930.43H1297.53Z" fill="#032068"/>
<path d="M546.578 761.44L522.791 835.92L664.045 888.71L683.493 781.22C706.222 783.83 758.153 768.04 784.049 684.05C816.418 579.06 773.763 446.154 683.861 432.788C593.96 419.422 528.37 495.2 511.962 593.9C498.836 672.85 529.57 738.49 546.578 761.44Z" fill="#EFCB96"/>
<path d="M546.037 757.31C560.542 765.48 620.267 768.54 648.316 769.05C668.946 766.34 679.155 748.21 691.862 717.15C702.028 692.31 685.896 671.77 676.559 664.6C619.453 613.34 678.098 563.66 696.55 561.24C715.312 558.77 717.911 595.03 718.37 627.91C718.522 638.79 731.013 640.87 735.2 630.83C744.681 608.09 755.488 584.38 764.367 566.66C772.526 550.38 787.717 539.71 804.176 531.92C890.04 491.31 885.148 412.946 863.781 396.544C840.439 378.626 827.731 409.679 744.455 382.85C661.179 356.021 540.439 363.498 487.11 500.63C433.781 637.75 527.905 747.1 546.037 757.31Z" fill="#032068"/>
<path d="M1601.31 1582.7C1579.74 1490.36 1458.74 1472.23 1400.94 1474.72L1393.24 1582.7H1601.31Z" fill="#EFCB96"/>
<path d="M465.216 812.82C395.302 866.08 308.271 1011.61 277.55 1116.94C201.159 1378.86 99.1561 1889.86 367.275 1930.43C595.099 1930.7 784.691 1930.54 851.01 1930.43C882.002 1883.69 939.37 1776.82 920.9 1715.87L910.501 1624.32C1032.28 1677.78 1251.43 1640.27 1377.08 1606.93C1401.09 1600.56 1416.13 1577.29 1413.26 1552.61L1402.42 1459.42C1399.52 1434.48 1378.9 1415.36 1353.88 1413.24C1082.14 1390.25 1011.28 1299.4 947.95 1212.33C881.37 1120.77 756.524 921.02 702.424 875.24C648.324 829.46 552.609 746.23 465.216 812.82Z" fill="#F4AD5E"/>
<path d="M590.067 1308.04C669.968 1467.84 806.467 1578.54 914.67 1628.48L918.83 1707.55C685.782 1567.72 602.551 1382.95 590.067 1308.04Z" fill="#032068"/>
<path d="M956.28 1640.96C932.7 1589.64 849.745 1484.49 706.589 1474.5C749.591 1523.05 859.733 1624.32 956.28 1640.96Z" fill="#032068"/>
<path d="M121.043 1669.09C167.725 1888.94 275.26 1922.78 346.118 1922.78H862.957C954.65 1922.78 942.15 1893.94 942.15 1868.96C912.97 1744.04 842.116 1694.08 629.545 1631.62C416.974 1569.16 371.126 1319.34 300.269 1156.95C229.412 994.56 37.682 990.4 12.674 1023.71C-12.3348 1057.02 62.69 1394.28 121.043 1669.09Z" fill="white"/>
<path fill-rule="evenodd" clip-rule="evenodd" d="M31.887 1020.49C24.73 1023.03 20.657 1025.94 18.853 1028.35C18.362 1029 17.462 1030.87 16.726 1034.83C16.022 1038.63 15.592 1043.63 15.482 1049.87C15.263 1062.34 16.331 1078.95 18.531 1099.12C22.927 1139.42 31.74 1193.05 43.194 1254.42C62.117 1355.81 88.149 1477.8 113.091 1594.69C118.335 1619.26 123.53 1643.61 128.601 1667.49C151.723 1776.38 189.671 1838.05 229.568 1872.54C269.364 1906.94 311.977 1915.06 346.118 1915.06H862.956C885.563 1915.06 901.231 1913.27 912.043 1910.42C922.84 1907.57 928.15 1903.83 930.92 1900.39C933.64 1897.02 934.73 1892.95 934.95 1887.58C935.06 1884.87 934.95 1882.01 934.79 1878.84C934.77 1878.4 934.74 1877.96 934.72 1877.51C934.59 1875.08 934.45 1872.47 934.43 1869.87C920.14 1809.26 895.968 1767.5 849.987 1733.05C803.262 1698.04 733.598 1670.25 627.367 1639.03C518.211 1606.96 452.262 1526.78 404.902 1435.31C381.229 1389.59 362.078 1340.82 344.476 1293.54C340.594 1283.11 336.791 1272.76 333.032 1262.54C319.692 1226.25 306.918 1191.51 293.186 1160.04C258.869 1081.39 195.348 1041.05 137.148 1024.37C108.012 1016.02 80.411 1013.66 58.795 1015.34C47.978 1016.18 38.861 1018.02 31.887 1020.49ZM141.407 1009.51C203.038 1027.18 270.811 1070.12 307.351 1153.86C321.285 1185.79 334.271 1221.12 347.637 1257.48C351.372 1267.63 355.136 1277.87 358.96 1288.14C376.525 1335.33 395.408 1383.36 418.626 1428.21C465.047 1517.86 528.308 1593.82 631.723 1624.21C738.063 1655.45 810.113 1683.87 859.253 1720.68C908.925 1757.9 934.76 1803.35 949.67 1867.2L949.88 1868.07V1868.96C949.88 1871.41 950.01 1873.9 950.15 1876.63C950.18 1877.09 950.2 1877.57 950.22 1878.05C950.39 1881.24 950.54 1884.73 950.39 1888.23C950.09 1895.3 948.57 1903.13 942.95 1910.09C937.39 1916.99 928.64 1922.02 915.99 1925.36C903.354 1928.69 886.198 1930.51 862.956 1930.51H346.118C309.401 1930.51 262.818 1921.71 219.461 1884.23C176.205 1846.83 137.045 1781.66 113.484 1670.7C108.422 1646.86 103.232 1622.54 97.993 1597.99C73.05 1481.1 46.965 1358.86 28.001 1257.26C16.53 1195.79 7.62932 1141.69 3.16802 1100.79C0.939919 1080.37 -0.206182 1063.02 0.0301179 1049.59C0.148218 1042.89 0.613417 1036.96 1.53022 1032.02C2.41422 1027.25 3.85852 1022.58 6.49372 1019.07C10.9417 1013.14 18.331 1008.9 26.722 1005.93C35.298 1002.88 45.816 1000.85 57.597 999.93C81.178 998.1 110.627 1000.69 141.407 1009.51Z" fill="#032068"/>
<path d="M2664.37 1594.38H1224.48C1196.9 1594.38 1174.54 1616.73 1174.54 1644.32C1174.54 1671.9 1196.9 1694.25 1224.48 1694.25H2664.37C2691.95 1694.25 2714.31 1671.9 2714.31 1644.32C2714.31 1616.73 2691.95 1594.38 2664.37 1594.38Z" fill="white"/>
<path fill-rule="evenodd" clip-rule="evenodd" d="M1166.81 1644.32C1166.81 1612.47 1192.63 1586.65 1224.48 1586.65H2664.37C2696.22 1586.65 2722.04 1612.47 2722.04 1644.32C2722.04 1676.16 2696.22 1701.98 2664.37 1701.98H1224.48C1192.63 1701.98 1166.81 1676.16 1166.81 1644.32ZM1224.48 1602.1C1201.17 1602.1 1182.27 1621 1182.27 1644.32C1182.27 1667.63 1201.17 1686.53 1224.48 1686.53H2664.37C2687.68 1686.53 2706.58 1667.63 2706.58 1644.32C2706.58 1621 2687.69 1602.1 2664.37 1602.1H1224.48Z" fill="#032068"/>
<path d="M1330.01 1923.13L1383.1 1699.04H1515.47L1416.88 1923.13H1330.01Z" fill="white"/>
<path fill-rule="evenodd" clip-rule="evenodd" d="M1376.99 1691.31H1527.31L1421.92 1930.85H1320.24L1376.99 1691.31ZM1389.21 1706.76L1339.79 1915.4H1411.84L1503.63 1706.76H1389.21Z" fill="#032068"/>
<path d="M2543.19 1923.13L2492.61 1699.04H2357.74L2454.68 1923.13H2543.19Z" fill="white"/>
<path fill-rule="evenodd" clip-rule="evenodd" d="M2500.86 1688.73H2342.04L2447.91 1933.44H2556.09L2500.86 1688.73ZM2484.37 1709.35L2530.29 1912.82H2461.45L2373.43 1709.35H2484.37Z" fill="#032068"/>
<path d="M2008.99 101.655L1990.08 105.741C1988.93 105.99 1987.76 105.577 1987.05 104.671L1978 93.1526C1976.05 90.6746 1972 92.5056 1972.42 95.6766L1974.38 110.686C1974.53 111.782 1974.08 112.893 1973.21 113.61L1960.21 124.317C1957.76 126.33 1959.3 130.215 1962.4 129.842L1979.52 127.78C1980.53 127.659 1981.51 128.031 1982.17 128.78L1991.09 139.002C1993.1 141.305 1996.95 139.465 1996.58 136.384L1994.93 123.007C1994.8 121.933 1995.23 120.846 1996.08 120.134L2011.5 107.104C2014.03 104.973 2012.18 100.966 2008.99 101.655Z" fill="#FF0000"/>
<path d="M271.728 118.901L243.687 155.07C241.98 157.271 239.198 158.329 236.473 157.815L201.814 151.275C194.358 149.868 189.859 159.306 195.614 164.284L222.853 187.846C224.842 189.566 225.781 192.215 225.324 194.815L218.49 233.666C217.206 240.97 226.135 245.491 231.19 240.096L259.171 210.239C260.814 208.486 263.195 207.639 265.567 207.965L297.949 212.406C305.244 213.406 309.375 204.251 303.828 199.376L279.746 178.211C277.812 176.512 276.888 173.926 277.303 171.375L284.896 124.706C286.138 117.073 276.455 112.804 271.728 118.901Z" fill="#FF0000"/>
<path d="M2219.05 397.387L2202.41 476.46V526.39L2239.86 559.69L2352.22 547.2V472.29L2348.06 384.901C2393.83 326.639 2410.48 214.279 2360.54 156.017C2310.6 97.756 2181.6 89.4329 2156.63 226.763C2136.65 336.628 2189.92 386.289 2219.05 397.387Z" fill="#EFCB96"/>
<path d="M1948.55 1937.16L1991.18 1471.06H2588.01L2647.69 1937.16H1948.55Z" fill="#032068"/>
<path d="M1549.04 601.3C1549.04 614.62 1562.91 637.37 1569.85 647.08L1561.53 697.02L1499.1 705.34C1482.46 684.53 1432.52 676.21 1420.03 642.92C1410.05 616.28 1438.07 587.43 1453.33 580.49L1401.6 508.08C1395.55 499.6 1396.97 487.9 1404.88 481.13C1413.27 473.94 1425.88 474.86 1433.13 483.2L1503.27 563.85C1503.27 566.62 1505.76 566.35 1515.75 543.04C1528.23 513.91 1540.72 526.39 1549.04 530.56C1557.37 534.72 1549.04 584.66 1549.04 601.3Z" fill="#EFCB96"/>
<path d="M2268.99 518.07C2212.39 518.07 2198.25 473.68 2198.25 451.487C2158.29 451.487 2132.13 470.99 2123.8 476.54L2056.75 667.89L2044.27 1475.23C2184.1 1518.51 2360.55 1493.26 2431.29 1475.23L2477.07 480.62C2449.56 463.11 2409.37 455.469 2380.49 452.749C2366.36 451.418 2354.2 461.42 2346.98 473.64C2334.43 494.88 2309.9 518.07 2268.99 518.07Z" fill="white"/>
<path fill-rule="evenodd" clip-rule="evenodd" d="M2130.25 481.51L2064.46 669.26L2052.09 1469.51C2185.51 1508.81 2351.35 1486.6 2423.84 1469.11L2469.14 484.84C2443.36 469.95 2407 463.01 2379.77 460.44C2369.96 459.52 2360.17 466.51 2353.63 477.57C2340.1 500.47 2313.36 525.8 2268.99 525.8C2238.37 525.8 2218.38 513.64 2206.26 497.8C2196.74 485.36 2192.36 471.04 2191 459.44C2160.39 461.39 2139.5 475.24 2130.25 481.51ZM2121.2 468.97C2131.16 462.19 2158.25 443.759 2198.25 443.759H2205.97V451.487C2205.97 461.25 2209.15 476.14 2218.53 488.41C2227.63 500.31 2243.02 510.34 2268.99 510.34C2306.45 510.34 2328.76 489.29 2340.33 469.71C2348.24 456.33 2362.76 443.317 2381.22 445.055C2410.38 447.803 2452.1 455.571 2481.22 474.1L2484.99 476.5L2438.75 1481.3L2433.2 1482.71C2361.89 1500.89 2183.8 1526.5 2041.98 1482.61L2036.45 1480.9L2049.05 666.51L2117.37 471.55L2119.52 470.11C2120.01 469.78 2120.57 469.4 2121.2 468.97Z" fill="#032068"/>
<path d="M2123.33 884.29C2129.16 782.4 2160.85 598.86 2181.71 489.44C2186.81 443.017 2204.26 439.692 2147.89 455.893C1950.5 512.62 1902.73 772.19 1840.35 776.09C1795.95 778.86 1688.7 704.72 1618.88 651.04C1597.88 634.9 1568.07 636.37 1549.34 655.1L1504.72 699.73C1491.05 713.39 1485.96 733.57 1493.55 751.34C1545.11 872.22 1690.08 1063.01 1782.09 1109.01C1861.99 1148.96 1926.35 1092.36 1948.55 1059.07C1947.16 1165.88 1945.22 1393.66 1948.55 1450.26C1952.71 1521 1948.55 1579.26 1998.49 1587.59C2048.43 1595.91 2144.14 1579.26 2144.14 1562.62C2144.14 1545.97 2115.01 1029.94 2123.33 884.29ZM2323.09 880.13C2326.15 803.6 2364.62 596.93 2388.05 480.02C2393.92 450.744 2391.58 448.978 2422.36 457.53C2638.04 517.46 2809.29 886.57 2793.34 1034.1C2780.03 1157.28 2682.37 1351.77 2635.2 1433.61C2637.98 1483.55 2638.53 1585.09 2618.56 1591.75C2593.59 1600.07 2377.19 1591.75 2364.7 1566.78C2352.22 1541.81 2318.93 984.16 2323.09 880.13Z" fill="#F4AD5E"/>
<path d="M2370.42 1443.01C2344.28 1431.71 2332.24 1401.37 2343.54 1375.23L2425.51 1185.47C2436.81 1159.33 2467.15 1147.3 2493.29 1158.59L2771.93 1278.96C2798.07 1290.25 2810.11 1320.6 2798.81 1346.73L2716.84 1536.5C2705.54 1562.64 2675.2 1574.67 2649.06 1563.38L2370.42 1443.01Z" fill="white"/>
<path fill-rule="evenodd" clip-rule="evenodd" d="M2367.35 1450.1C2337.3 1437.11 2323.46 1402.22 2336.44 1372.17L2418.42 1182.4C2431.4 1152.35 2466.3 1138.51 2496.35 1151.49L2775 1271.87C2805.05 1284.85 2818.89 1319.74 2805.91 1349.8L2723.93 1539.56C2710.94 1569.62 2676.05 1583.46 2646 1570.47L2367.35 1450.1ZM2350.63 1378.3C2341.03 1400.52 2351.26 1426.31 2373.48 1435.91L2652.13 1556.29C2674.35 1565.89 2700.14 1555.65 2709.74 1533.43L2791.72 1343.67C2801.32 1321.45 2791.09 1295.65 2768.87 1286.06L2490.22 1165.68C2468 1156.08 2442.21 1166.31 2432.61 1188.53L2350.63 1378.3Z" fill="#032068"/>
<path d="M2772.54 884.29C2746.18 925.9 2705.95 1040.76 2755.89 1167.27C2780.86 1120.11 2819.15 997.48 2772.54 884.29ZM1703.02 1046.59C1743.25 1036.88 1844.51 1030.77 1927.75 1084.04C1894.45 1121.5 1802.9 1166.44 1703.02 1046.59Z" fill="#032068"/>
<path d="M1969.35 826.03C1961.03 900.93 1952.71 996.65 1948.55 1067.39C1928.57 1090.7 1879.19 1113.17 1856.99 1121.49C1913.59 1058.24 1944.38 917.58 1969.35 826.03Z" fill="#032068"/>
<path d="M2448.47 1463.96C2451.8 1453.97 2485.92 1420.96 2502.57 1405.7C2537.25 1401.54 2604.11 1405.7 2594.12 1455.64C2581.64 1518.06 2569.15 1568 2502.57 1547.19C2449.3 1530.55 2455.4 1495.87 2465.11 1480.61C2458.18 1479.22 2445.14 1473.95 2448.47 1463.96Z" fill="#EFCB96"/>
<path d="M2288.72 1936.99L2249.7 1710.89V1936.99H2288.72Z" fill="white"/>
<path d="M2343.9 301.671L2348.06 376.579L2349.08 458.47C2350.62 458.4 2355.29 451.367 2356.81 451.331C2431.32 449.561 2493.47 487.16 2515.22 504.84C2544.35 384.15 2443.78 301.671 2443.78 255.894C2443.78 210.117 2422.97 68.625 2281.48 64.464C2175.34 61.342 2146.29 148.217 2144.22 210.523C2144.01 216.859 2149.8 221.52 2155.75 219.325C2184.25 208.806 2220.68 179.542 2242.35 156.545C2248.38 150.148 2260.81 152.194 2264.74 160.058C2274.75 180.127 2289.41 198.711 2299.9 211.411C2301.44 213.27 2302.28 215.582 2302.32 217.994C2302.55 229.793 2303.78 245.803 2305.67 261.616C2307 272.706 2322.42 272.665 2325.9 262.053C2329.82 250.122 2334.55 238.711 2339.74 230.925C2356.38 205.955 2381.35 226.763 2381.35 255.894C2381.35 279.199 2356.38 296.122 2343.9 301.671ZM2119.17 468.13C2135.82 451.487 2153.85 369.644 2160.79 330.802C2167.45 364.095 2202.41 389.064 2219.05 397.387L2206.13 458.47L2202.26 446.881C2168.97 446.881 2134.43 461.2 2119.17 468.13Z" fill="#032068"/>
<path d="M2577.28 1443.96L2516.99 1420.21C2493.86 1411.09 2480.53 1386.78 2485.21 1362.36C2498.21 1294.62 2514.82 1205.66 2527 1134.42L2735.08 1225.53C2711.78 1288.79 2667.11 1376.74 2647.69 1412.8L2637.86 1426.31C2624.05 1445.31 2599.13 1452.57 2577.28 1443.96Z" fill="#F4AD5E"/>
<path d="M2543.65 1017.46C2543.65 980.83 2478.45 873.19 2447.93 809.38C2514.97 1008.7 2518.87 1055.51 2487.66 1351.99C2507.17 1254.47 2543.65 1034.93 2543.65 1017.46ZM2284.81 396.227C2256.72 408.71 2228.9 401.428 2218.49 396.227L2210.69 435.237C2248.14 435.237 2275.71 409.23 2284.81 396.227Z" fill="#032068"/>
</g>
<defs>
<clipPath id="clip0_1_2">
<rect width="2810.78" height="1937.16" fill="white"/>
</clipPath>
</defs>
</svg>
