<svg viewBox="0 0 54 49" fill="#fe9a52"
    xmlns="http://www.w3.org/2000/svg">
    <path d="M49.991 9.65459L31.0808 13.7406C29.9308 13.9896 28.7609 13.5766 28.0509 12.6706L19.0009 1.15258C17.0509 -1.32542 13.0009 0.505564 13.4209 3.67657L15.3809 18.6856C15.5309 19.7816 15.0808 20.8926 14.2108 21.6096L1.21083 32.3166C-1.23916 34.3296 0.3009 38.2146 3.40089 37.8416L20.5209 35.7796C21.5309 35.6586 22.5109 36.0306 23.1709 36.7796L32.0908 47.0016C34.1008 49.3046 37.9508 47.4646 37.5808 44.3836L35.9309 31.0066C35.8009 29.9326 36.2308 28.8456 37.0808 28.1336L52.501 15.1036C55.031 12.9726 53.181 8.96559 49.991 9.65459Z" />
</svg>
