<svg viewBox="0 0 114 127" fill="#fe9a52"
    xmlns="http://www.w3.org/2000/svg">
    <path d="M78.7282 2.90112L50.6872 39.0701C48.9802 41.2711 46.1982 42.3291 43.4732 41.8151L8.81422 35.2751C1.35824 33.8681 -3.14077 43.3061 2.61421 48.2841L29.8532 71.8461C31.8422 73.5661 32.7812 76.2151 32.3242 78.8151L25.4902 117.666C24.2062 124.97 33.1352 129.491 38.1902 124.096L66.1712 94.2391C67.8142 92.4861 70.1952 91.6392 72.5672 91.9652L104.949 96.4061C112.244 97.4061 116.375 88.2512 110.828 83.3762L86.7462 62.2111C84.8122 60.5121 83.8882 57.9261 84.3032 55.3751L91.8962 8.70612C93.1382 1.07311 83.4552 -3.19588 78.7282 2.90112Z" />
</svg>
