<svg viewBox="0 0 2808 1810" fill="none"
    xmlns="http://www.w3.org/2000/svg">
    <g clip-path="url(#clip0_1_2)">
        <path d="M253.477 1420.98C253.477 1544.55 334.887 1663.85 407.521 1742.1C450.879 1788.81 513.809 1809.52 577.541 1809.52H1828.64C2077.57 1809.52 2466.85 1419.22 2471.24 1170.33C2471.8 1139.1 2470.66 1106.38 2467.25 1071.95C2432 716.34 2192.29 607.68 1942.01 472.68C1691.72 337.676 1853.88 140.113 1423.82 21.575C993.75 -96.963 539.011 294.871 553.111 660.36C567.212 1025.86 253.477 1078.54 253.477 1420.98Z" fill="#E7E8FF"/>
        <path d="M2124.73 468.73C1979.39 419.31 1887.34 278.573 1859.48 214.379C1808.61 69.036 1957.59 145.341 2062.96 276.15C2168.33 406.959 2306.4 530.5 2124.73 468.73Z" fill="#E7E8FF"/>
        <path d="M1896.12 1809.52H1553.63C1458.3 1774.28 1331.19 1731.99 1362.96 1650.92C1394.74 1569.86 1553.63 1679.12 1596 1601.58C1638.37 1524.05 1295.88 1513.47 1331.19 1414.79C1366.5 1316.11 1581.88 1442.99 1553.63 1347.83C1525.38 1252.67 1285.29 1287.91 1295.88 1189.23C1306.47 1090.55 1486.54 1252.67 1507.73 1139.89C1528.91 1027.11 1334.72 826.21 1486.54 790.97C1638.37 755.73 1596 1122.26 1648.96 1139.89C1701.93 1157.51 1751.36 967.19 1825.51 1051.78C1899.65 1136.36 1772.54 1326.68 1825.51 1414.79C1878.47 1502.9 1952.62 1175.13 2037.36 1326.68C2105.15 1447.92 1971.45 1699.09 1896.12 1809.52ZM943.71 1432.81C974.08 1639.21 1131.23 1758.49 1212.84 1795.19C1215.46 1796.37 1218.23 1796.91 1221.1 1796.91H1244.1C1257.77 1796.91 1267.85 1784.08 1264.15 1770.92C1201.26 1547.06 1055.41 1444.39 968.01 1412.35C954.57 1407.42 941.63 1418.65 943.71 1432.81Z" fill="white"/>
        <path fill-rule="evenodd" clip-rule="evenodd" d="M965.59 1418.96C957.54 1416.01 949.31 1422.5 950.68 1431.78C980.58 1635.04 1135.51 1752.69 1215.73 1788.77C1217.36 1789.5 1219.13 1789.86 1221.1 1789.86H1244.1C1253.29 1789.86 1259.76 1781.32 1257.37 1772.82C1195.14 1551.32 1051.04 1450.29 965.59 1418.96ZM936.74 1433.83C933.94 1414.8 951.61 1398.83 970.44 1405.74C1059.78 1438.49 1207.38 1542.81 1270.93 1769.01C1275.94 1786.84 1262.25 1803.95 1244.1 1803.95H1221.1C1217.32 1803.95 1213.56 1803.23 1209.95 1801.61C1126.96 1764.29 967.57 1643.37 936.74 1433.83Z" fill="#032068"/>
        <path fill-rule="evenodd" clip-rule="evenodd" d="M1070.22 1551.61C1048.46 1529.23 1028.8 1511.31 1011.56 1495.98L1020.91 1485.46C1041.23 1503.52 1065.1 1525.35 1091.82 1553.83C1111.67 1574.99 1133.07 1599.8 1155.78 1629.47V1599.1H1169.86V1648.28C1189.25 1674.75 1209.51 1704.77 1230.49 1739.04C1240.44 1755.29 1250.56 1772.5 1260.82 1790.74L1248.54 1797.65C1238.94 1780.58 1229.47 1764.42 1220.15 1749.12L1174.93 1741.53L1177.27 1727.64L1210.3 1733.19C1191.95 1703.91 1174.19 1677.93 1157.15 1654.76C1130.84 1619.01 1106.21 1589.92 1083.63 1565.69H1037.91V1551.61H1070.22Z" fill="#032068"/>
        <path d="M1190.08 1074.42C1058.55 1352.27 1152.94 1656.97 1224.38 1788.98C1227.98 1795.64 1234.97 1799.62 1242.54 1799.62H1275.61C1286.71 1799.62 1295.93 1790.91 1296.61 1779.83C1318.15 1429.38 1264.69 1185.04 1224.29 1075.59C1218.37 1059.54 1197.4 1058.96 1190.08 1074.42Z" fill="#032068"/>
        <path d="M1494.76 1232.78C1326.15 1346.66 1244.29 1624.87 1220.2 1775.92C1218.19 1788.51 1228.06 1799.62 1240.81 1799.62H1289.52C1294.98 1799.62 1300.25 1797.51 1304.12 1793.66C1457.99 1640.41 1512.58 1387.46 1523.63 1250.2C1524.92 1234.12 1508.12 1223.76 1494.76 1232.78Z" fill="white"/>
        <path fill-rule="evenodd" clip-rule="evenodd" d="M1516.61 1249.63C1517.46 1239.05 1506.85 1233.11 1498.7 1238.62C1416.02 1294.46 1354.08 1391.05 1309.74 1493.22C1265.47 1595.25 1239.12 1701.97 1227.15 1777.03C1225.85 1785.16 1232.2 1792.57 1240.81 1792.57H1289.52C1293.18 1792.57 1296.64 1791.17 1299.15 1788.67C1375.06 1713.07 1426.72 1612.6 1460.78 1513.64C1494.82 1414.72 1511.13 1317.76 1516.61 1249.63ZM1490.82 1226.95C1509.4 1214.4 1532.38 1229.19 1530.64 1250.76C1525.08 1319.9 1508.57 1418.04 1474.09 1518.22C1439.63 1618.36 1387.05 1721 1309.09 1798.65C1303.85 1803.86 1296.78 1806.66 1289.52 1806.66H1240.81C1223.92 1806.66 1210.52 1791.87 1213.25 1774.81C1225.37 1698.82 1252 1590.92 1296.83 1487.61C1341.59 1384.45 1404.89 1284.99 1490.82 1226.95Z" fill="#032068"/>
        <path d="M1636.45 1530.47C1469.22 1536.73 1343.02 1675.65 1285.27 1769.53C1276.99 1782.99 1287.03 1799.62 1302.84 1799.62H1361.33C1364.26 1799.62 1367.14 1799.02 1369.81 1797.81C1479.53 1747.88 1591.11 1633.4 1650.92 1561.28C1661.53 1548.49 1653.06 1529.84 1636.45 1530.47Z" fill="#032068"/>
        <path fill-rule="evenodd" clip-rule="evenodd" d="M1212.94 1119.73C1211.08 1175.9 1210.8 1230.15 1211.71 1281.95C1212.42 1322.05 1213.85 1360.68 1215.82 1397.58L1245.98 1348.82L1257.96 1356.23L1217.23 1422.07C1220.08 1468.63 1223.78 1512.22 1227.95 1552.31C1232.9 1599.88 1238.53 1642.5 1244.2 1679.26L1270.33 1636.1L1282.38 1643.39L1247.64 1700.78C1254.56 1742.76 1261.37 1775.68 1266.93 1797.91L1253.27 1801.32C1247.48 1778.16 1240.43 1743.96 1233.32 1700.5C1226.71 1660.09 1220.02 1611.64 1214.23 1556.53L1163.35 1512.29L1172.59 1501.66L1212.16 1536.06C1208.63 1500.1 1205.51 1461.52 1203.04 1420.69C1200.43 1377.59 1198.54 1331.99 1197.67 1284.29L1162.14 1231.83L1173.8 1223.94L1197.3 1258.64C1196.84 1213.79 1197.28 1167.22 1198.87 1119.27L1212.94 1119.73Z" fill="white"/>
        <path fill-rule="evenodd" clip-rule="evenodd" d="M1405.75 1452.65C1432.32 1393.19 1459.72 1337.44 1485.63 1293.8L1473.53 1286.61C1445.09 1334.5 1415.08 1396.41 1386.43 1461.48C1370.83 1496.89 1355.62 1533.29 1341.26 1568.94L1329.33 1508.33L1315.51 1511.04L1331.64 1593.01C1316.78 1630.52 1303 1666.76 1290.87 1699.63C1276.78 1737.81 1264.91 1771.48 1256.14 1797.36L1269.48 1801.87C1278.02 1776.66 1289.54 1743.97 1303.21 1706.86L1374.76 1664.78L1367.63 1652.65L1310.97 1685.97C1321.52 1657.72 1333.14 1627.43 1345.49 1596.28C1361.97 1554.75 1379.75 1511.72 1398.06 1470.02L1462.82 1448.63L1458.4 1435.26L1405.75 1452.65Z" fill="#032068"/>
        <path fill-rule="evenodd" clip-rule="evenodd" d="M1612.44 1570.34C1573.8 1587.08 1534.54 1609.97 1497.08 1635.35C1473.48 1651.33 1450.63 1668.29 1429.14 1685.28H1466.03V1699.36H1411.64C1361.85 1740.13 1321.05 1779.5 1297.76 1804.42L1287.47 1794.81C1311.51 1769.08 1353.53 1728.58 1404.68 1686.86C1430.35 1665.92 1458.35 1644.66 1487.56 1624.78L1508.42 1579.88L1521.19 1585.81L1509.96 1609.99C1541.6 1589.73 1574.34 1571.5 1606.84 1557.42L1612.44 1570.34Z" fill="white"/>
        <path d="M474.221 883.42L459.307 961.71L474.221 1043.74C512.747 1048.71 591.292 1058.65 597.257 1058.65C603.223 1058.65 646.969 1021.37 668.097 1002.73L645.726 883.42C708.363 862.54 728.994 770.32 731.479 726.83C746.393 547.86 627.084 525.49 604.714 525.49C582.344 525.49 440.665 525.49 422.023 674.63C407.11 793.94 450.608 863.53 474.221 883.42Z" fill="#EFCB96"/>
        <path d="M112.566 1808.05H697.922H1025.31C1204.27 1808.05 1166.99 1604.72 1125.97 1504.92C1088.69 1389.34 1014.83 1222.69 925.35 1081.02C853.769 967.67 719.05 941.82 664.367 943.07C659.395 965.44 638.268 1010.18 563.7 1010.18C489.133 1010.18 458.063 965.44 448.12 943.07C409.594 943.07 302.713 963.94 213.232 1047.46C101.458 1151.78 52.979 1390.14 8.26399 1609.99L8.171 1610.45C-27.6216 1786.43 62.854 1813.02 112.566 1808.05Z" fill="#F4AD5E"/>
        <path d="M1058.86 1803.19C1058.86 1680.9 1113.55 1574.52 1137.16 1538.48C1148.35 1564.58 1168.48 1633.18 1159.53 1698.8C1150.58 1764.42 1103.6 1795.74 1058.86 1803.19Z" fill="#032068"/>
        <path d="M820.248 1739.81L805.334 1650.33L723.31 1683.88L820.248 1739.81Z" fill="#EFCB96"/>
        <path d="M362.367 1520.97L418.293 1293.53L407.108 1520.97L681.695 1587.94C701.635 1592.8 719.769 1605.11 726.167 1624.61C747.209 1688.75 723.211 1763.62 694.193 1789.41C716.564 1757.4 716.564 1636.55 690.465 1617.9C669.586 1602.99 410.836 1554.52 284.071 1532.15L362.367 1520.97ZM515.232 808.85C500.318 895.34 479.191 904.54 470.491 898.33C366.097 831.22 368.615 616.8 433.208 544.13C492.862 477.02 537.602 503.12 660.639 473.29C783.676 443.46 824.688 495.66 802.318 562.77C770.115 659.38 668.096 607.51 641.997 618.7C615.898 629.88 582.343 659.71 567.429 719.37C552.516 779.02 545.059 767.83 533.874 734.28C522.689 700.72 492.862 652.25 470.491 711.91C452.595 759.63 492.862 796.42 515.232 808.85Z" fill="#032068"/>
        <path d="M955.18 1808.06C955.18 1706.64 804.802 1676.32 731.477 1673.84C731.477 1724.54 700.407 1784.44 683.008 1808.06H955.18Z" fill="#EFCB96"/>
        <path fill-rule="evenodd" clip-rule="evenodd" d="M0.156738 1674.5C-1.34126 1746.04 24.023 1808.05 100.669 1808.05H168.491C150.597 1688.76 55.949 1616.68 11.202 1595.54C10.22 1600.36 9.24104 1605.18 8.26304 1609.99L8.17004 1610.44C3.31304 1634.32 0.781038 1655.59 0.156738 1674.5Z" fill="#032068"/>
        <path d="M566.717 883.41C602.509 895.34 632.585 888.38 645.013 883.41L652.47 928.15C604.746 922.19 576.659 897.08 566.717 883.41ZM1047.68 1545.93L805.334 1631.68C869.645 1586.45 905.49 1571.31 969.38 1545.93L932.1 1277.49L999.21 1531.02L1047.68 1545.93Z" fill="#032068"/>
        <path d="M2373.49 959.67L2387.15 1031.39L2373.49 1106.53C2338.19 1111.09 2266.24 1120.19 2260.78 1120.19C2255.31 1120.19 2215.24 1086.04 2195.89 1068.96L2216.38 959.67C2159 940.54 2140.1 856.07 2137.82 816.22C2124.16 652.28 2233.45 631.79 2253.95 631.79C2274.44 631.79 2404.22 631.79 2421.3 768.41C2434.96 877.7 2395.12 941.45 2373.49 959.67Z" fill="#EFCB96"/>
        <path d="M2291.52 1075.79C2359.83 1075.79 2388.29 1034.81 2397.4 1014.32L2421.31 1021.15L2271.03 1799.86H2247.12H1881.67L2110.5 1062.13L2189.06 1014.32H2199.3C2203.86 1034.81 2223.21 1075.79 2291.52 1075.79Z" fill="white"/>
        <path fill-rule="evenodd" clip-rule="evenodd" d="M2393.45 1005.87L2390.96 1011.46C2382.62 1030.22 2356.25 1068.75 2291.52 1068.75C2258.88 1068.75 2238.74 1059.01 2226.27 1047.55C2213.66 1035.97 2208.23 1022.05 2206.18 1012.79L2204.95 1007.28H2187.08L2104.57 1057.5L1872.12 1806.9H2276.84L2429.44 1016.15L2393.45 1005.87ZM2193.88 1021.36C2197.13 1032.15 2203.79 1046.03 2216.74 1057.93C2232.16 1072.08 2255.85 1082.83 2291.52 1082.83C2357.82 1082.83 2388.96 1045.89 2401.15 1022.71L2413.17 1026.15L2265.22 1792.82H1891.23L2116.44 1066.76L2191.03 1021.36H2193.88Z" fill="#032068"/>
        <path d="M2284.69 1420.75C2303.82 1297.79 2370.07 1096.29 2400.81 1010.9C2458.87 1021.15 2587.98 1060.77 2639.89 1137.27C2691.8 1213.78 2761.71 1467.43 2790.17 1584.69C2820.91 1690.56 2820.91 1806.69 2704.78 1806.69H2178.81C2124.17 1700.81 2141.24 1649.58 2158.32 1629.09C2171.98 1612.69 2232.59 1599.49 2261.19 1594.93C2268.62 1533.76 2276.79 1471.52 2284.69 1420.75Z" fill="#F4AD5E"/>
        <path d="M2475.95 1543.7L2424.72 1335.36L2438.38 1540.29L2185.6 1604.24C2165.92 1609.22 2147.9 1621.46 2142.32 1640.97C2125.7 1699.2 2151.58 1766.29 2171.98 1789.61C2151.06 1765.7 2151.48 1649.58 2175.39 1632.5C2194.52 1618.84 2431.55 1574.44 2547.67 1553.95L2475.95 1543.7ZM2393.98 785.49C2407.64 823.74 2370.08 846.96 2349.58 853.79L2386.89 1027.98L2390.41 1013.9C2460.82 1020.94 2541.98 1055.3 2571.58 1075.79C2588.66 969.92 2523.77 925.52 2486.2 843.55C2448.63 761.58 2479.37 570.31 2288.11 570.31C2135.1 570.31 2112.78 706.93 2120.75 775.24C2189.06 756.11 2228.91 685.3 2240.29 652.28C2247.12 669.36 2305.18 823.05 2325.68 785.49C2346.17 747.92 2376.91 737.67 2393.98 785.49ZM2072.94 1045.05C2119.39 998.61 2137.83 891.36 2141.24 843.55C2152.17 922.78 2195.89 953.98 2216.38 959.67L2206.14 1014.32C2146.03 1011.58 2092.29 1033.67 2072.94 1045.05ZM2656.97 1806.69C2673.36 1697.4 2756.01 1627.95 2797 1608.6C2819.14 1697.9 2814.07 1806.69 2718.44 1806.69H2656.97Z" fill="#032068"/>
        <path d="M2287.94 961.73C2255.16 972.66 2224.29 962.76 2212.91 958.21L2205.87 1003.97C2249.59 998.51 2278.84 974.25 2287.94 961.73Z" fill="#032068"/>
        <path d="M1579.56 1213.32C1584.55 1233.72 1607.69 1248.06 1611.86 1255.5L1535.86 1321.7C1523.37 1297.26 1505.71 1244.76 1443.29 1237.11C1355.89 1227.54 1348.28 1162.07 1391.98 1152.51C1426.94 1144.86 1487.99 1157.17 1520.24 1163.54L1483.39 1147.52C1478.29 1145.3 1476.56 1138.92 1479.86 1134.44C1481.68 1131.96 1484.67 1130.62 1487.73 1130.8C1500.29 1131.55 1523.33 1132.66 1542.1 1146.38C1560.55 1159.86 1573.31 1187.82 1579.56 1213.32Z" fill="#EFCB96"/>
        <path fill-rule="evenodd" clip-rule="evenodd" d="M2192.48 1010.9C2158.33 1090.59 2084.55 1284.13 2062.69 1420.75C2040.84 1557.36 2023.99 1732.69 2018.29 1806.69H1850.94L1856.41 1793.02C1813.94 1792.69 1768.55 1780.79 1741.64 1762.29C1687 1724.72 1499.5 1379.76 1499.5 1338.78C1499.5 1297.79 1578.06 1229.49 1612.21 1229.49C1628.48 1229.49 1671.86 1272.1 1715.43 1314.89C1763.33 1361.94 1811.45 1409.2 1823.97 1400.26C1833.26 1393.62 1839.46 1374.59 1848.58 1346.58C1862.92 1302.55 1884.49 1236.33 1936.67 1161.18C1958.32 1130.01 1983.93 1104.3 2010.38 1083.69C2065.61 1030.8 2154 1013.1 2192.48 1010.9Z" fill="#F4AD5E"/>
        <path d="M1967.06 1349.03C1956.17 1481.78 1912.62 1719.35 1894.48 1806.69H1850.93C1871.25 1761.97 1938.03 1488.77 1967.06 1349.03Z" fill="#032068"/>
        <path d="M1673.33 1673.49C1697.24 1714.47 1724.57 1769.12 1782.63 1782.78C1808.09 1791.27 1834.02 1793.85 1857.77 1793.17L1895.34 1742.9C1815.27 1696.98 1718.46 1676.31 1673.33 1673.49Z" fill="#032068"/>
        <path d="M1932.91 1806.69C1932.91 1713.79 2070.66 1686.01 2137.83 1683.73C2137.83 1730.18 2161.74 1775.95 2182.23 1806.69H1932.91Z" fill="#EFCB96"/>
        <path d="M604.372 106.091C604.372 89.668 617.555 76.355 633.816 76.355H1232.04C1248.3 76.355 1261.49 89.668 1261.49 106.091V372.69C1261.49 389.112 1248.3 402.426 1232.04 402.426H633.816C617.555 402.426 604.372 389.112 604.372 372.69V106.091Z" fill="white"/>
        <path fill-rule="evenodd" clip-rule="evenodd" d="M598.484 106.091C598.484 86.383 614.302 70.407 633.816 70.407H1232.04C1251.56 70.407 1267.37 86.383 1267.37 106.091V372.69C1267.37 392.397 1251.56 408.37 1232.04 408.37H633.816C614.302 408.37 598.484 392.397 598.484 372.69V106.091ZM633.816 82.302C620.807 82.302 610.261 92.953 610.261 106.091V372.69C610.261 385.828 620.807 396.479 633.816 396.479H1232.04C1245.05 396.479 1255.6 385.828 1255.6 372.69V106.091C1255.6 92.953 1245.05 82.302 1232.04 82.302H633.816Z" fill="#032068"/>
        <path d="M706.926 201.994C706.926 185.571 720.108 172.258 736.369 172.258H814.223C830.484 172.258 843.666 185.571 843.666 201.994V280.622C843.666 297.045 830.484 310.359 814.223 310.359H736.369C720.108 310.359 706.926 297.045 706.926 280.622V201.994Z" fill="#F4AD5E"/>
        <path fill-rule="evenodd" clip-rule="evenodd" d="M1155.13 201.223H938.63V189.328H1155.13V201.223ZM1044.91 304.798H938.63V292.904H1044.91V304.798Z" fill="#032068"/>
        <path d="M1904.77 672.73L1796.99 250.297C1793.04 234.836 1777.31 225.5 1761.85 229.445L1477.4 302.023C1469.97 303.918 1463.61 308.684 1459.69 315.273L1417.57 386.256C1413.66 392.845 1412.53 400.718 1414.42 408.14L1507.78 774.03C1511.72 789.49 1527.46 798.82 1542.92 794.88L1883.92 707.87C1899.38 703.93 1908.72 688.2 1904.77 672.73Z" fill="white"/>
        <path fill-rule="evenodd" clip-rule="evenodd" d="M1454.73 312.324C1459.42 304.417 1467.06 298.698 1475.97 296.424L1760.42 223.846C1778.97 219.112 1797.85 230.315 1802.58 248.868L1910.37 671.31C1915.1 689.86 1903.9 708.74 1885.35 713.47L1544.34 800.48C1525.79 805.21 1506.91 794.01 1502.18 775.46L1408.82 409.57C1406.55 400.662 1407.91 391.214 1412.6 383.307L1454.73 312.324ZM1478.83 307.622C1472.89 309.138 1467.79 312.951 1464.66 318.222L1422.54 389.205C1419.41 394.476 1418.51 400.775 1420.02 406.714L1513.38 772.6C1516.53 784.97 1529.12 792.44 1541.49 789.28L1882.49 702.27C1894.86 699.12 1902.33 686.53 1899.17 674.16L1791.39 251.725C1788.23 239.356 1775.65 231.888 1763.28 235.044L1478.83 307.622Z" fill="#032068"/>
        <path d="M1413.16 396.114L1467.5 304.549L1481.83 360.704C1484.19 369.98 1478.59 379.419 1469.32 381.786L1413.16 396.114Z" fill="#032068"/>
        <path fill-rule="evenodd" clip-rule="evenodd" d="M1589.44 378.784L1501.22 401.293L1498.36 390.096L1586.58 367.586L1589.44 378.784ZM1745.94 425.59L1522 482.73L1519.14 471.53L1743.09 414.39L1745.94 425.59ZM1763.69 495.15L1539.75 552.29L1536.89 541.09L1760.83 483.95L1763.69 495.15ZM1781.87 566.4L1557.93 623.54L1555.07 612.34L1779.01 555.2L1781.87 566.4ZM1758.04 642.96L1574.81 689.71L1571.95 678.51L1755.18 631.76L1758.04 642.96Z" fill="#F4AD5E"/>
    </g>
    <defs>
        <clipPath id="clip0_1_2">
            <rect width="2807.87" height="1809.52" fill="white"/>
        </clipPath>
    </defs>
</svg>
