<svg xmlns="http://www.w3.org/2000/svg" viewBox="0 0 40.5 33.5">
    <path d="M13.3333 29.8333C20.6971 29.8333 26.6666 23.8638 26.6666 16.5C26.6666 9.13622 20.6971 3.1667 13.3333 3.1667C5.96952 3.1667 0 9.13622 0 16.5C0 23.8638 5.96952 29.8333 13.3333 29.8333Z" fill="#FF8D47"></path>
    <path d="M31.5 18C36.4706 18 40.5 13.9706 40.5 9C40.5 4.02944 36.4706 0 31.5 0C26.5294 0 22.5 4.02944 22.5 9C22.5 13.9706 26.5294 18 31.5 18Z" fill="#5022E2"></path>
    <path d="M29.5 33.5C33.366 33.5 36.5 30.366 36.5 26.5C36.5 22.634 33.366 19.5 29.5 19.5C25.634 19.5 22.5 22.634 22.5 26.5C22.5 30.366 25.634 33.5 29.5 33.5Z" fill="#FFB78B"></path>
    <path d="M24 26C29.2467 26 33.5 21.7467 33.5 16.5C33.5 11.2533 29.2467 7 24 7C18.7533 7 14.5 11.2533 14.5 16.5C14.5 21.7467 18.7533 26 24 26Z" fill="white"></path>
</svg>