<svg fill="none"
    xmlns="http://www.w3.org/2000/svg" viewBox="0.5 1.5 123.5 33.5">
    <circle cx="13.8333" cy="18.0001" r="13.3333" fill="#FF8D47"></circle>
    <circle cx="32" cy="10.5" r="9" fill="#6152FF"></circle>
    <circle cx="30" cy="28" r="7" fill="#FFB78B"></circle>
    <circle cx="24.5" cy="18" r="9.5" fill="white"></circle>
    <path d="M58.562 23.108C57.806 23.108 57.128 23.018 56.528 22.838C55.928 22.658 55.412 22.328 54.98 21.848C54.548 21.368 54.218 20.678 53.99 19.778C53.762 18.878 53.648 17.708 53.648 16.268C53.648 14.876 53.768 13.736 54.008 12.848C54.248 11.96 54.584 11.276 55.016 10.796C55.46 10.304 55.982 9.968 56.582 9.788C57.182 9.596 57.842 9.5 58.562 9.5C59.666 9.5 60.584 9.584 61.316 9.752C62.048 9.908 62.594 10.064 62.954 10.22V12.938C62.606 12.866 62.114 12.8 61.478 12.74C60.854 12.668 60.14 12.632 59.336 12.632C58.928 12.632 58.58 12.674 58.292 12.758C58.016 12.842 57.794 13.01 57.626 13.262C57.458 13.514 57.332 13.886 57.248 14.378C57.176 14.858 57.14 15.5 57.14 16.304C57.14 17.264 57.194 18.014 57.302 18.554C57.41 19.082 57.626 19.454 57.95 19.67C58.274 19.874 58.748 19.976 59.372 19.976C60.284 19.976 61.022 19.964 61.586 19.94C62.162 19.904 62.618 19.862 62.954 19.814V22.532C62.51 22.712 61.94 22.856 61.244 22.964C60.56 23.06 59.666 23.108 58.562 23.108ZM72.2798 23.09C71.1278 23.09 70.2098 22.928 69.5258 22.604C68.8538 22.268 68.3738 21.74 68.0858 21.02C67.7978 20.288 67.6538 19.322 67.6538 18.122C67.6538 16.826 67.7978 15.818 68.0858 15.098C68.3858 14.366 68.8718 13.856 69.5438 13.568C70.2278 13.28 71.1398 13.136 72.2798 13.136C73.4318 13.136 74.3438 13.292 75.0158 13.604C75.6878 13.904 76.1678 14.42 76.4558 15.152C76.7558 15.872 76.9058 16.862 76.9058 18.122C76.9058 19.358 76.7678 20.342 76.4918 21.074C76.2158 21.794 75.7418 22.31 75.0698 22.622C74.3978 22.934 73.4678 23.09 72.2798 23.09ZM72.2798 20.318C72.5798 20.318 72.8078 20.276 72.9638 20.192C73.1318 20.108 73.2458 19.91 73.3058 19.598C73.3778 19.274 73.4138 18.776 73.4138 18.104C73.4138 17.432 73.3778 16.94 73.3058 16.628C73.2458 16.316 73.1318 16.118 72.9638 16.034C72.8078 15.95 72.5798 15.908 72.2798 15.908C71.9798 15.908 71.7458 15.95 71.5778 16.034C71.4218 16.118 71.3078 16.316 71.2358 16.628C71.1758 16.94 71.1458 17.432 71.1458 18.104C71.1458 18.776 71.1758 19.274 71.2358 19.598C71.3078 19.91 71.4218 20.108 71.5778 20.192C71.7458 20.276 71.9798 20.318 72.2798 20.318ZM85.2978 23.054C84.1458 23.054 83.2938 22.784 82.7418 22.244C82.2018 21.704 81.9318 20.906 81.9318 19.85V9.266H85.4238V19.31C85.4238 19.646 85.4838 19.904 85.6038 20.084C85.7238 20.264 85.9218 20.378 86.1978 20.426L86.7918 20.516V23.054H85.2978ZM94.8589 23.054C93.7069 23.054 92.8549 22.784 92.3029 22.244C91.7629 21.704 91.4929 20.906 91.4929 19.85V9.266H94.9849V19.31C94.9849 19.646 95.0449 19.904 95.1649 20.084C95.2849 20.264 95.4829 20.378 95.7589 20.426L96.3529 20.516V23.054H94.8589ZM103.232 23.108C102.488 23.108 101.882 22.886 101.414 22.442C100.958 21.998 100.73 21.398 100.73 20.642V19.652C100.73 18.932 100.994 18.332 101.522 17.852C102.05 17.372 102.89 17.132 104.042 17.132H105.986V16.826C105.986 16.586 105.944 16.4 105.86 16.268C105.776 16.124 105.602 16.028 105.338 15.98C105.086 15.92 104.684 15.89 104.132 15.89H101.306V13.892C101.81 13.688 102.386 13.52 103.034 13.388C103.694 13.256 104.498 13.19 105.446 13.19C106.262 13.19 106.97 13.286 107.57 13.478C108.182 13.658 108.65 13.994 108.974 14.486C109.31 14.966 109.478 15.662 109.478 16.574V23H106.706L106.166 22.028C105.938 22.256 105.584 22.496 105.104 22.748C104.624 22.988 104 23.108 103.232 23.108ZM105.068 20.732C105.236 20.732 105.41 20.708 105.59 20.66C105.77 20.6 105.902 20.546 105.986 20.498V18.752L105.248 18.86C104.912 18.908 104.654 18.998 104.474 19.13C104.306 19.25 104.222 19.442 104.222 19.706V20.066C104.222 20.306 104.294 20.48 104.438 20.588C104.594 20.684 104.804 20.732 105.068 20.732ZM120.759 23.108C120.135 23.108 119.637 23.018 119.265 22.838C118.905 22.658 118.551 22.418 118.203 22.118L117.663 23H114.711V9.266H118.203V13.838C118.527 13.67 118.899 13.514 119.319 13.37C119.751 13.214 120.171 13.136 120.579 13.136C121.443 13.136 122.121 13.316 122.613 13.676C123.117 14.036 123.471 14.594 123.675 15.35C123.891 16.094 123.999 17.066 123.999 18.266C123.999 19.982 123.723 21.218 123.171 21.974C122.631 22.73 121.827 23.108 120.759 23.108ZM119.391 20.282C119.571 20.282 119.745 20.234 119.913 20.138C120.081 20.042 120.219 19.838 120.327 19.526C120.447 19.214 120.507 18.734 120.507 18.086C120.507 17.402 120.447 16.91 120.327 16.61C120.219 16.31 120.075 16.124 119.895 16.052C119.727 15.968 119.559 15.926 119.391 15.926C119.163 15.926 118.929 15.968 118.689 16.052C118.461 16.136 118.299 16.214 118.203 16.286V20.012C118.335 20.084 118.497 20.15 118.689 20.21C118.881 20.258 119.115 20.282 119.391 20.282Z" fill="#6152FF"></path>
</svg>